<mxfile host="app.diagrams.net" modified="2021-06-05T09:52:11.132Z" agent="5.0 (Windows NT 10.0; Win64; x64) AppleWebKit/537.36 (KHTML, like Gecko) Chrome/91.0.4472.77 Safari/537.36" etag="IrMd9047Am9XOkx4_3K0" version="14.7.6" type="github">
  <diagram id="ocMGhMGGZdpEaKpSw11q" name="Page-1">
    <mxGraphModel dx="782" dy="468" grid="1" gridSize="10" guides="1" tooltips="1" connect="1" arrows="1" fold="1" page="1" pageScale="1" pageWidth="827" pageHeight="1169" math="0" shadow="0">
      <root>
        <mxCell id="0" />
        <mxCell id="1" parent="0" />
        <mxCell id="r4phoXNQwfBK2Rl3FMrO-14" style="edgeStyle=orthogonalEdgeStyle;rounded=0;orthogonalLoop=1;jettySize=auto;html=1;" edge="1" parent="1" source="r4phoXNQwfBK2Rl3FMrO-1">
          <mxGeometry relative="1" as="geometry">
            <mxPoint x="340" y="550.5" as="targetPoint" />
          </mxGeometry>
        </mxCell>
        <mxCell id="r4phoXNQwfBK2Rl3FMrO-1" value="" style="shape=image;html=1;verticalAlign=top;verticalLabelPosition=bottom;labelBackgroundColor=#ffffff;imageAspect=0;aspect=fixed;image=https://cdn3.iconfinder.com/data/icons/animals-105/150/icon_animal_rato-128.png" vertex="1" parent="1">
          <mxGeometry x="160" y="521" width="59" height="59" as="geometry" />
        </mxCell>
        <mxCell id="r4phoXNQwfBK2Rl3FMrO-18" style="edgeStyle=orthogonalEdgeStyle;rounded=0;orthogonalLoop=1;jettySize=auto;html=1;" edge="1" parent="1" source="r4phoXNQwfBK2Rl3FMrO-2">
          <mxGeometry relative="1" as="geometry">
            <mxPoint x="336.5" y="550" as="targetPoint" />
          </mxGeometry>
        </mxCell>
        <mxCell id="r4phoXNQwfBK2Rl3FMrO-2" value="" style="shape=image;html=1;verticalAlign=top;verticalLabelPosition=bottom;labelBackgroundColor=#ffffff;imageAspect=0;aspect=fixed;image=https://cdn0.iconfinder.com/data/icons/shift-free/32/Piece_of_cheese-128.png" vertex="1" parent="1">
          <mxGeometry x="320" y="660" width="33" height="33" as="geometry" />
        </mxCell>
        <mxCell id="r4phoXNQwfBK2Rl3FMrO-15" style="edgeStyle=orthogonalEdgeStyle;rounded=0;orthogonalLoop=1;jettySize=auto;html=1;" edge="1" parent="1" source="r4phoXNQwfBK2Rl3FMrO-3">
          <mxGeometry relative="1" as="geometry">
            <mxPoint x="330" y="550.5" as="targetPoint" />
          </mxGeometry>
        </mxCell>
        <mxCell id="r4phoXNQwfBK2Rl3FMrO-3" value="" style="shape=image;html=1;verticalAlign=top;verticalLabelPosition=bottom;labelBackgroundColor=#ffffff;imageAspect=0;aspect=fixed;image=https://cdn3.iconfinder.com/data/icons/animals-105/150/icon_animal_rato-128.png" vertex="1" parent="1">
          <mxGeometry x="470" y="521" width="59" height="59" as="geometry" />
        </mxCell>
        <mxCell id="r4phoXNQwfBK2Rl3FMrO-24" style="edgeStyle=orthogonalEdgeStyle;rounded=0;orthogonalLoop=1;jettySize=auto;html=1;" edge="1" parent="1" source="r4phoXNQwfBK2Rl3FMrO-19">
          <mxGeometry relative="1" as="geometry">
            <mxPoint x="330" y="550" as="targetPoint" />
            <Array as="points">
              <mxPoint x="290" y="400" />
              <mxPoint x="290" y="550" />
            </Array>
          </mxGeometry>
        </mxCell>
        <mxCell id="r4phoXNQwfBK2Rl3FMrO-19" value="" style="shape=image;html=1;verticalAlign=top;verticalLabelPosition=bottom;labelBackgroundColor=#ffffff;imageAspect=0;aspect=fixed;image=https://cdn4.iconfinder.com/data/icons/halloween-2476/64/cat-pet-animal-halloween-breed-128.png" vertex="1" parent="1">
          <mxGeometry x="110" y="370" width="60" height="60" as="geometry" />
        </mxCell>
        <mxCell id="r4phoXNQwfBK2Rl3FMrO-25" style="edgeStyle=orthogonalEdgeStyle;rounded=0;orthogonalLoop=1;jettySize=auto;html=1;" edge="1" parent="1" source="r4phoXNQwfBK2Rl3FMrO-20">
          <mxGeometry relative="1" as="geometry">
            <mxPoint x="336.5" y="550" as="targetPoint" />
          </mxGeometry>
        </mxCell>
        <mxCell id="r4phoXNQwfBK2Rl3FMrO-20" value="" style="shape=image;html=1;verticalAlign=top;verticalLabelPosition=bottom;labelBackgroundColor=#ffffff;imageAspect=0;aspect=fixed;image=https://cdn4.iconfinder.com/data/icons/halloween-2476/64/cat-pet-animal-halloween-breed-128.png" vertex="1" parent="1">
          <mxGeometry x="306.5" y="370" width="60" height="60" as="geometry" />
        </mxCell>
        <mxCell id="r4phoXNQwfBK2Rl3FMrO-26" style="edgeStyle=orthogonalEdgeStyle;rounded=0;orthogonalLoop=1;jettySize=auto;html=1;" edge="1" parent="1" source="r4phoXNQwfBK2Rl3FMrO-21">
          <mxGeometry relative="1" as="geometry">
            <mxPoint x="410" y="550" as="targetPoint" />
            <Array as="points">
              <mxPoint x="390" y="410" />
              <mxPoint x="390" y="550" />
            </Array>
          </mxGeometry>
        </mxCell>
        <mxCell id="r4phoXNQwfBK2Rl3FMrO-21" value="" style="shape=image;html=1;verticalAlign=top;verticalLabelPosition=bottom;labelBackgroundColor=#ffffff;imageAspect=0;aspect=fixed;image=https://cdn4.iconfinder.com/data/icons/halloween-2476/64/cat-pet-animal-halloween-breed-128.png" vertex="1" parent="1">
          <mxGeometry x="480" y="380" width="60" height="60" as="geometry" />
        </mxCell>
        <mxCell id="r4phoXNQwfBK2Rl3FMrO-48" style="edgeStyle=orthogonalEdgeStyle;rounded=0;orthogonalLoop=1;jettySize=auto;html=1;" edge="1" parent="1" source="r4phoXNQwfBK2Rl3FMrO-28">
          <mxGeometry relative="1" as="geometry">
            <mxPoint x="510" y="380" as="targetPoint" />
          </mxGeometry>
        </mxCell>
        <mxCell id="r4phoXNQwfBK2Rl3FMrO-28" value="" style="shape=image;html=1;verticalAlign=top;verticalLabelPosition=bottom;labelBackgroundColor=#ffffff;imageAspect=0;aspect=fixed;image=https://cdn3.iconfinder.com/data/icons/animals-105/150/icon_animal_cachorro-128.png" vertex="1" parent="1">
          <mxGeometry x="550" y="280" width="60" height="60" as="geometry" />
        </mxCell>
        <mxCell id="r4phoXNQwfBK2Rl3FMrO-42" style="edgeStyle=orthogonalEdgeStyle;rounded=0;orthogonalLoop=1;jettySize=auto;html=1;entryX=0.5;entryY=0;entryDx=0;entryDy=0;" edge="1" parent="1" source="r4phoXNQwfBK2Rl3FMrO-29" target="r4phoXNQwfBK2Rl3FMrO-19">
          <mxGeometry relative="1" as="geometry" />
        </mxCell>
        <mxCell id="r4phoXNQwfBK2Rl3FMrO-43" style="edgeStyle=orthogonalEdgeStyle;rounded=0;orthogonalLoop=1;jettySize=auto;html=1;entryX=0.5;entryY=0;entryDx=0;entryDy=0;" edge="1" parent="1" source="r4phoXNQwfBK2Rl3FMrO-29" target="r4phoXNQwfBK2Rl3FMrO-20">
          <mxGeometry relative="1" as="geometry">
            <mxPoint x="350" y="310" as="targetPoint" />
          </mxGeometry>
        </mxCell>
        <mxCell id="r4phoXNQwfBK2Rl3FMrO-29" value="" style="shape=image;html=1;verticalAlign=top;verticalLabelPosition=bottom;labelBackgroundColor=#ffffff;imageAspect=0;aspect=fixed;image=https://cdn3.iconfinder.com/data/icons/animals-105/150/icon_animal_cachorro-128.png" vertex="1" parent="1">
          <mxGeometry x="200" y="280" width="60" height="60" as="geometry" />
        </mxCell>
        <mxCell id="r4phoXNQwfBK2Rl3FMrO-41" style="edgeStyle=orthogonalEdgeStyle;rounded=0;orthogonalLoop=1;jettySize=auto;html=1;entryX=0.5;entryY=0;entryDx=0;entryDy=0;" edge="1" parent="1" source="r4phoXNQwfBK2Rl3FMrO-30" target="r4phoXNQwfBK2Rl3FMrO-19">
          <mxGeometry relative="1" as="geometry" />
        </mxCell>
        <mxCell id="r4phoXNQwfBK2Rl3FMrO-30" value="" style="shape=image;html=1;verticalAlign=top;verticalLabelPosition=bottom;labelBackgroundColor=#ffffff;imageAspect=0;aspect=fixed;image=https://cdn3.iconfinder.com/data/icons/animals-105/150/icon_animal_cachorro-128.png" vertex="1" parent="1">
          <mxGeometry x="20" y="280" width="60" height="60" as="geometry" />
        </mxCell>
        <mxCell id="r4phoXNQwfBK2Rl3FMrO-44" style="edgeStyle=orthogonalEdgeStyle;rounded=0;orthogonalLoop=1;jettySize=auto;html=1;entryX=0.5;entryY=0;entryDx=0;entryDy=0;" edge="1" parent="1" source="r4phoXNQwfBK2Rl3FMrO-31" target="r4phoXNQwfBK2Rl3FMrO-20">
          <mxGeometry relative="1" as="geometry" />
        </mxCell>
        <mxCell id="r4phoXNQwfBK2Rl3FMrO-46" style="edgeStyle=orthogonalEdgeStyle;rounded=0;orthogonalLoop=1;jettySize=auto;html=1;" edge="1" parent="1" source="r4phoXNQwfBK2Rl3FMrO-31" target="r4phoXNQwfBK2Rl3FMrO-21">
          <mxGeometry relative="1" as="geometry" />
        </mxCell>
        <mxCell id="r4phoXNQwfBK2Rl3FMrO-31" value="" style="shape=image;html=1;verticalAlign=top;verticalLabelPosition=bottom;labelBackgroundColor=#ffffff;imageAspect=0;aspect=fixed;image=https://cdn3.iconfinder.com/data/icons/animals-105/150/icon_animal_cachorro-128.png" vertex="1" parent="1">
          <mxGeometry x="384" y="280" width="60" height="60" as="geometry" />
        </mxCell>
        <mxCell id="r4phoXNQwfBK2Rl3FMrO-50" value="cat eat mouse" style="text;html=1;resizable=0;autosize=1;align=center;verticalAlign=middle;points=[];fillColor=none;strokeColor=none;rounded=0;" vertex="1" parent="1">
          <mxGeometry x="170" y="380" width="90" height="20" as="geometry" />
        </mxCell>
        <mxCell id="r4phoXNQwfBK2Rl3FMrO-51" value="cat eat mouse" style="text;html=1;resizable=0;autosize=1;align=center;verticalAlign=middle;points=[];fillColor=none;strokeColor=none;rounded=0;" vertex="1" parent="1">
          <mxGeometry x="355" y="390" width="90" height="20" as="geometry" />
        </mxCell>
        <mxCell id="r4phoXNQwfBK2Rl3FMrO-52" value="cat eat mouse" style="text;html=1;resizable=0;autosize=1;align=center;verticalAlign=middle;points=[];fillColor=none;strokeColor=none;rounded=0;" vertex="1" parent="1">
          <mxGeometry x="529" y="390" width="90" height="20" as="geometry" />
        </mxCell>
        <mxCell id="r4phoXNQwfBK2Rl3FMrO-53" value="mouse eat cheese" style="text;html=1;resizable=0;autosize=1;align=center;verticalAlign=middle;points=[];fillColor=none;strokeColor=none;rounded=0;" vertex="1" parent="1">
          <mxGeometry x="135" y="585" width="110" height="20" as="geometry" />
        </mxCell>
        <mxCell id="r4phoXNQwfBK2Rl3FMrO-54" value="mouse eat cheese" style="text;html=1;resizable=0;autosize=1;align=center;verticalAlign=middle;points=[];fillColor=none;strokeColor=none;rounded=0;" vertex="1" parent="1">
          <mxGeometry x="445" y="585" width="110" height="20" as="geometry" />
        </mxCell>
        <mxCell id="r4phoXNQwfBK2Rl3FMrO-55" value="dog eat cat" style="text;html=1;resizable=0;autosize=1;align=center;verticalAlign=middle;points=[];fillColor=none;strokeColor=none;rounded=0;" vertex="1" parent="1">
          <mxGeometry x="545" y="330" width="70" height="20" as="geometry" />
        </mxCell>
        <mxCell id="r4phoXNQwfBK2Rl3FMrO-56" value="dog eat cat" style="text;html=1;resizable=0;autosize=1;align=center;verticalAlign=middle;points=[];fillColor=none;strokeColor=none;rounded=0;" vertex="1" parent="1">
          <mxGeometry x="195" y="330" width="70" height="20" as="geometry" />
        </mxCell>
        <mxCell id="r4phoXNQwfBK2Rl3FMrO-57" value="dog eat cat" style="text;html=1;resizable=0;autosize=1;align=center;verticalAlign=middle;points=[];fillColor=none;strokeColor=none;rounded=0;" vertex="1" parent="1">
          <mxGeometry x="15" y="330" width="70" height="20" as="geometry" />
        </mxCell>
        <mxCell id="r4phoXNQwfBK2Rl3FMrO-58" value="dog eat cat" style="text;html=1;resizable=0;autosize=1;align=center;verticalAlign=middle;points=[];fillColor=none;strokeColor=none;rounded=0;" vertex="1" parent="1">
          <mxGeometry x="384" y="330" width="70" height="20" as="geometry" />
        </mxCell>
        <mxCell id="r4phoXNQwfBK2Rl3FMrO-60" value="cheese" style="text;html=1;resizable=0;autosize=1;align=center;verticalAlign=middle;points=[];fillColor=none;strokeColor=none;rounded=0;" vertex="1" parent="1">
          <mxGeometry x="361.5" y="666.5" width="50" height="20" as="geometry" />
        </mxCell>
      </root>
    </mxGraphModel>
  </diagram>
</mxfile>
